# xmcd CD database file generated by OrangeCD 6.5
#
# Track frame offsets:
#	150
#	25285
#	45009
#	70957
#	97164
#	136209
#	165454
#	183889
#	202798
#	229481
#	258891
#
# Disc length: 3729 seconds
#
# Revision: 0
# Processed by: cddbd v1.5.2PL0 Copyright (c) Steve Scherf et al.
# Submitted via: OrangeCD 6.5
#
DISCID=890e8f0b
DTITLE=Joe Bonamassa - Blues Of Desperation
DYEAR=2016
DGENRE=Blues
TTITLE0=This Train
TTITLE1=Mountain Climbing
TTITLE2=Drive
TTITLE3=No Good Place For The Lonely
TTITLE4=Blue Of Desperation
TTITLE5=The Valley Runs Low
TTITLE6=You Left Me Nothin' But The Bill And The Blues
TTITLE7=Distant Lonesome Train
TTITLE8=How Deep This River Runs
TTITLE9=Livin' Easy
TTITLE10=What I've Known For A Very Long Time
EXTD=
EXTT0=
EXTT1=
EXTT2=
EXTT3=
EXTT4=
EXTT5=
EXTT6=
EXTT7=
EXTT8=
EXTT9=
EXTT10=
PLAYORDER=
